<?xml version="1.0" standalone="no"?>
<!DOCTYPE svg PUBLIC "-//W3C//DTD SVG 20010904//EN"
 "http://www.w3.org/TR/2001/REC-SVG-20010904/DTD/svg10.dtd">
<svg version="1.0" xmlns="http://www.w3.org/2000/svg"
 width="800.000000pt" height="800.000000pt" viewBox="0 0 800.000000 800.000000"
 preserveAspectRatio="xMidYMid meet">

<g transform="translate(0.000000,800.000000) scale(0.100000,-0.100000)"
fill="#000000" stroke="none">
<path d="M3845 6439 c-768 -63 -1443 -454 -1861 -1080 -218 -327 -356 -722
-394 -1134 -40 -432 54 -918 253 -1310 64 -125 64 -124 -63 -580 -40 -143
-142 -519 -180 -658 -17 -66 -30 -120 -28 -122 3 -3 125 28 488 123 85 22 289
75 453 117 345 88 310 88 509 1 237 -103 487 -170 728 -196 148 -16 497 -8
640 15 792 126 1454 620 1804 1345 163 338 236 667 236 1060 0 225 -13 355
-56 545 -186 834 -815 1514 -1639 1773 -269 85 -615 124 -890 101z m552 -422
c151 -32 298 -78 423 -132 89 -39 130 -60 240 -123 169 -97 410 -309 543 -478
288 -366 440 -808 440 -1274 0 -302 -56 -563 -180 -835 -201 -442 -548 -793
-993 -1004 -410 -194 -911 -245 -1336 -136 -178 46 -302 93 -473 181 -94 49
-155 74 -177 74 -18 0 -172 -37 -341 -81 -391 -103 -413 -108 -413 -97 0 22
103 407 131 491 36 106 47 214 30 284 -7 26 -50 125 -96 218 -131 267 -195
487 -216 747 -59 721 280 1429 886 1847 222 154 485 262 765 315 184 35 177
34 425 31 188 -3 238 -7 342 -28z"/>
<path d="M3117 5129 c-60 -14 -90 -34 -149 -98 -178 -192 -232 -449 -148 -710
87 -273 459 -757 780 -1014 196 -158 464 -309 660 -374 230 -76 449 -96 585
-53 245 77 385 251 385 476 0 78 2 75 -84 123 -82 47 -477 231 -493 231 -40 0
-81 -41 -212 -209 -35 -45 -78 -89 -94 -97 -40 -21 -89 -8 -220 57 -271 135
-486 325 -655 578 -94 140 -97 164 -37 236 119 141 148 190 149 250 1 62 -194
533 -237 574 -15 14 -46 24 -92 31 -80 11 -87 11 -138 -1z"/>
</g>
</svg>
